<?xml version="1.0" standalone="no"?>
<!DOCTYPE svg PUBLIC "-//W3C//DTD SVG 20010904//EN"
 "http://www.w3.org/TR/2001/REC-SVG-20010904/DTD/svg10.dtd">
<svg version="1.0" xmlns="http://www.w3.org/2000/svg"
 width="800.000000pt" height="800.000000pt" viewBox="0 0 800.000000 800.000000"
 preserveAspectRatio="xMidYMid meet">
<metadata>
Created by potrace 1.14, written by Peter Selinger 2001-2017
</metadata>
<g transform="translate(0.000000,800.000000) scale(0.100000,-0.100000)"
fill="#000000" stroke="none">
<path d="M3635 6640 c-301 -13 -381 -20 -670 -65 -337 -52 -640 -143 -840
-252 -111 -61 -225 -134 -244 -156 -7 -10 -19 -17 -25 -17 -7 0 -37 -22 -68
-50 -31 -27 -61 -50 -66 -50 -6 0 -72 -62 -147 -137 -97 -98 -157 -170 -210
-248 -105 -157 -190 -331 -220 -449 -14 -54 -27 -102 -30 -107 -8 -12 -11 -30
-20 -114 -4 -38 -12 -80 -17 -95 -6 -14 -11 -101 -13 -193 -2 -93 -5 -171 -8
-174 -3 -2 -56 -8 -119 -13 -62 -4 -121 -11 -130 -15 -10 -4 -22 -23 -28 -44
-15 -59 -30 -560 -26 -926 4 -369 10 -463 35 -533 25 -70 50 -83 174 -89 l105
-6 12 -76 c25 -161 70 -301 137 -430 57 -108 94 -175 102 -181 4 -3 28 -34 53
-70 61 -85 334 -350 361 -350 5 0 26 -13 46 -28 20 -15 61 -41 91 -56 30 -16
62 -35 70 -41 52 -44 229 -114 390 -157 235 -62 293 -69 585 -72 149 -2 416
-8 595 -15 649 -23 1353 -15 1650 19 47 5 149 12 227 15 78 2 154 10 170 16
15 6 46 14 68 19 104 21 236 64 296 96 15 8 64 30 109 49 46 20 88 42 94 50 6
8 27 20 46 27 55 20 159 88 219 144 31 28 90 82 131 119 41 37 85 82 97 100
12 18 39 50 60 71 21 22 54 66 74 99 47 80 140 272 150 310 4 17 12 46 18 65
5 19 16 60 24 90 9 30 19 87 22 126 7 70 8 72 37 78 17 3 71 6 120 6 49 0 98
5 108 10 29 15 39 66 56 290 26 318 17 1138 -12 1256 -7 26 -16 29 -149 39
-134 11 -129 9 -131 58 -7 197 -26 403 -42 462 -65 239 -116 385 -141 405 -4
3 -15 25 -26 50 -40 93 -174 286 -249 359 -25 25 -46 48 -46 52 0 11 -213 198
-251 221 -19 11 -45 30 -59 43 -26 24 -225 142 -320 189 -73 37 -293 126 -311
126 -16 0 -137 31 -219 55 -68 20 -143 36 -195 41 -22 2 -89 8 -150 13 -60 6
-171 17 -245 25 -162 17 -830 27 -1105 16z"/>
</g>
</svg>
