<?xml version="1.0" encoding="UTF-8"?>
<svg id="Layer_2" xmlns="http://www.w3.org/2000/svg" viewBox="0 0 285.22 19.56">
  <g id="Layer_1-2" data-name="Layer_1">
    <g>
      <path d="M12.31,16.01L0,10.42v-.9L12.31,3.57v1.38L1.72,9.92l10.59,4.71v1.38Z"/>
      <path d="M29.4,3.43c-1.53,0-2.71.57-3.52,1.72-.81,1.15-1.22,2.72-1.22,4.71s.37,3.57,1.12,4.67c.75,1.1,1.95,1.65,3.61,1.65.78,0,1.55-.09,2.32-.26.77-.18,1.6-.42,2.5-.74v3.36c-.83.34-1.65.58-2.46.74s-1.72.24-2.73.24c-1.94,0-3.54-.4-4.8-1.2-1.26-.8-2.19-1.93-2.79-3.39-.6-1.46-.9-3.15-.9-5.09s.34-3.59,1.03-5.05,1.69-2.61,3-3.44c1.31-.83,2.92-1.24,4.83-1.24.93,0,1.87.12,2.82.36.94.24,1.85.56,2.71.97l-1.3,3.25c-.71-.33-1.42-.63-2.13-.87-.71-.25-1.42-.37-2.1-.37Z"/>
      <path d="M59.01,19.26h-4v-8.15h-7.49v8.15h-4V.36h4v7.41h7.49V.36h4v18.9Z"/>
      <path d="M80.63,19.3l-1.38-4.5h-6.88l-1.38,4.5h-4.31L73.36.32h4.9l6.7,18.97h-4.31ZM76.93,7.04c-.09-.3-.2-.68-.34-1.14-.14-.46-.28-.93-.42-1.4s-.26-.89-.34-1.24c-.09.35-.21.79-.36,1.31-.15.52-.29,1.01-.42,1.48-.13.47-.23.8-.3.99l-1.35,4.39h4.92l-1.38-4.39Z"/>
      <path d="M98.13.36c2.58,0,4.48.47,5.7,1.4,1.23.94,1.84,2.35,1.84,4.26,0,.86-.16,1.62-.49,2.26-.33.64-.76,1.19-1.3,1.64-.54.45-1.12.82-1.73,1.1l5.56,8.23h-4.45l-4.5-7.25h-2.14v7.25h-4V.36h5.5ZM97.84,3.64h-1.22v5.11h1.3c1.32,0,2.27-.22,2.84-.66.57-.44.86-1.09.86-1.96s-.3-1.54-.91-1.92c-.61-.38-1.57-.57-2.87-.57Z"/>
      <path d="M130.04,4.95c1.39,0,2.48.4,3.27,1.19.78.79,1.18,2.05,1.18,3.76v9.39h-1.48v-9.34c0-1.25-.29-2.18-.86-2.79-.57-.61-1.35-.91-2.32-.91-1.34,0-2.37.39-3.1,1.18-.72.79-1.08,2-1.08,3.64v8.23h-1.48v-9.34c0-1.25-.29-2.18-.86-2.79-.57-.61-1.35-.91-2.32-.91-1.34,0-2.37.41-3.08,1.24-.71.83-1.07,2.1-1.07,3.81v7.99h-1.51V5.21h1.22l.21,2.22h.11c.35-.69.89-1.27,1.6-1.76.71-.49,1.63-.73,2.74-.73,1.02,0,1.89.22,2.59.66.71.44,1.21,1.09,1.51,1.96h.08c.41-.83,1.01-1.47,1.81-1.93s1.75-.69,2.84-.69Z"/>
      <path d="M145.05,0c.69,0,1.03.38,1.03,1.14s-.34,1.16-1.03,1.16-1.03-.39-1.03-1.16.34-1.14,1.03-1.14ZM145.79,5.21v14.08h-1.51V5.21h1.51Z"/>
      <path d="M162.04,4.95c1.6,0,2.83.41,3.68,1.24s1.27,2.13,1.27,3.89v9.21h-1.48v-9.1c0-1.34-.31-2.33-.93-2.98-.62-.64-1.52-.97-2.7-.97-3.09,0-4.63,1.79-4.63,5.37v7.67h-1.51V5.21h1.22l.21,2.43h.11c.37-.78.96-1.42,1.77-1.93.81-.51,1.81-.77,2.99-.77Z"/>
      <path d="M181.78,4.98c1.59,0,2.77.39,3.55,1.16.78.78,1.16,2,1.16,3.68v9.47h-1.14l-.26-2.38h-.08c-.51.79-1.13,1.43-1.87,1.92s-1.75.73-3.06.73-2.43-.34-3.2-1.02c-.78-.68-1.16-1.65-1.16-2.92,0-1.41.57-2.48,1.72-3.22,1.15-.73,2.81-1.14,5-1.23l2.57-.13v-.98c0-1.38-.28-2.36-.83-2.94s-1.37-.87-2.45-.87c-.72,0-1.42.1-2.09.29-.67.19-1.34.45-2.01.77l-.48-1.22c.67-.32,1.4-.58,2.18-.79.78-.21,1.6-.32,2.45-.32ZM182.62,12.28c-1.8.09-3.14.4-4.01.94s-1.31,1.34-1.31,2.39c0,.88.27,1.55.81,2,.54.45,1.28.67,2.24.67,1.46,0,2.6-.42,3.41-1.26s1.23-2,1.24-3.48v-1.38l-2.38.11Z"/>
      <path d="M200.25,18.26c.39,0,.76-.03,1.11-.08.35-.05.66-.13.93-.24v1.22c-.26.11-.59.2-.98.28-.39.08-.8.12-1.24.12-1.18,0-2.09-.33-2.73-.98-.63-.65-.95-1.72-.95-3.2V6.43h-2.09v-.85l2.09-.5.53-3.23h.98v3.36h4.31v1.22h-4.31v8.87c0,1.98.78,2.96,2.35,2.96Z"/>
      <path d="M222.35,12.23c0,1.48-.24,2.77-.73,3.86s-1.2,1.94-2.14,2.55c-.94.61-2.09.91-3.45.91s-2.43-.3-3.36-.9c-.94-.6-1.65-1.45-2.16-2.55-.5-1.1-.75-2.39-.75-3.88,0-2.28.56-4.06,1.69-5.35s2.69-1.93,4.68-1.93c1.34,0,2.47.3,3.4.91.93.61,1.63,1.46,2.1,2.55s.71,2.36.71,3.81ZM211.31,12.23c0,1.82.38,3.28,1.15,4.38.77,1.1,1.96,1.65,3.59,1.65s2.84-.56,3.6-1.67c.76-1.11,1.14-2.57,1.14-4.37,0-1.16-.16-2.2-.48-3.1-.32-.9-.82-1.61-1.51-2.12-.69-.51-1.59-.77-2.7-.77-1.59,0-2.78.53-3.59,1.59s-1.2,2.52-1.2,4.39Z"/>
      <path d="M237.27,4.98c.69,0,1.32.07,1.91.21l-.24,1.4c-.56-.16-1.15-.24-1.75-.24-1.29,0-2.31.48-3.07,1.43-.76.95-1.14,2.21-1.14,3.78v7.73h-1.51V5.21h1.27l.16,2.62h.08c.35-.79.89-1.47,1.61-2.02s1.61-.83,2.67-.83Z"/>
      <path d="M265.93.34l-7.07,18.9h-1.51l7.07-18.9h1.51Z"/>
      <path d="M272.92,14.63l10.59-4.71-10.59-4.98v-1.38l12.31,5.95v.9l-12.31,5.58v-1.38Z"/>
    </g>
  </g>
</svg>